<?xml version="1.0" encoding="UTF-8" standalone="no"?>
<!-- Created with Inkscape (http://www.inkscape.org/) -->
<svg xmlns:inkscape="http://www.inkscape.org/namespaces/inkscape" xmlns:sodipodi="http://sodipodi.sourceforge.net/DTD/sodipodi-0.dtd" xmlns:xlink="http://www.w3.org/1999/xlink" xmlns="http://www.w3.org/2000/svg" xmlns:svg="http://www.w3.org/2000/svg" width="3840" height="400" viewBox="0 0 3840 400" version="1.1" id="svg1" xml:space="preserve" inkscape:version="1.3 (0e150ed6c4, 2023-07-21)" sodipodi:docname="website-top.svg">
  <defs id="defs1">
    <rect x="1435.4805" y="0" width="984.33935" height="215.18817" id="rect18"/>
    <linearGradient id="linearGradient11" inkscape:collect="always">
      <stop style="stop-color:#d85c74;stop-opacity:1;" offset="0.04218668" id="stop11"/>
      <stop style="stop-color:#37216e;stop-opacity:1;" offset="0.86234146" id="stop12"/>
    </linearGradient>
    <linearGradient id="linearGradient7" inkscape:collect="always">
      <stop style="stop-color:#652976;stop-opacity:1;" offset="0" id="stop7"/>
      <stop style="stop-color:#92347c;stop-opacity:1;" offset="0.49772826" id="stop9"/>
      <stop style="stop-color:#642a76;stop-opacity:1;" offset="1" id="stop8"/>
    </linearGradient>
    <linearGradient id="linearGradient2" inkscape:collect="always">
      <stop style="stop-color:#ffffc3;stop-opacity:1" offset="0.26816705" id="stop2"/>
      <stop style="stop-color:#fcd9c2;stop-opacity:1;" offset="0.53744465" id="stop3"/>
    </linearGradient>
    <linearGradient inkscape:collect="always" xlink:href="#linearGradient2" id="linearGradient3" x1="2102.6829" y1="103.91653" x2="2102.6829" y2="291.68027" gradientUnits="userSpaceOnUse" gradientTransform="translate(-177.73719,149.27389)"/>
    <linearGradient inkscape:collect="always" xlink:href="#linearGradient7" id="linearGradient8" x1="-17.270279" y1="121.79221" x2="3861.7383" y2="121.79221" gradientUnits="userSpaceOnUse" gradientTransform="translate(0,187.40297)"/>
    <radialGradient inkscape:collect="always" xlink:href="#linearGradient11" id="radialGradient12" cx="1928.5012" cy="575.55713" fx="1933.0775" fy="488.43988" r="1932.7045" gradientTransform="matrix(0.99664722,9.5205871e-8,-2.3482899e-8,0.59071288,1.351575e-5,-78.543666)" gradientUnits="userSpaceOnUse"/>
    <clipPath id="clipPath16">
      <rect style="fill:none;fill-opacity:1;stroke:none;stroke-width:2.54003;stroke-opacity:1" id="rect16" width="3840" height="400" x="0" y="0"/>
    </clipPath>
    <clipPath id="clipPath17">
      <rect style="fill:none;fill-opacity:1;stroke:none;stroke-width:2.54003;stroke-opacity:1" id="rect17" width="3840" height="400" x="0" y="0"/>
    </clipPath>
    <rect x="1435.4805" y="0" width="984.33936" height="215.18817" id="rect18-7"/>
    <filter inkscape:collect="always" style="color-interpolation-filters:sRGB" id="filter1" x="-0.021960322" y="-0.17177674" width="1.0439206" height="1.3435535">
      <feGaussianBlur inkscape:collect="always" stdDeviation="5.3441818" id="feGaussianBlur1"/>
    </filter>
    <rect x="1435.4805" y="0" width="984.33936" height="215.18817" id="rect18-6"/>
    <rect x="1435.4805" y="0" width="984.33936" height="215.18817" id="rect18-7-9"/>
    <filter inkscape:collect="always" style="color-interpolation-filters:sRGB" id="filter2" x="-0.03595901" y="-0.28127643" width="1.071918" height="1.5625529">
      <feGaussianBlur inkscape:collect="always" stdDeviation="8.7508493" id="feGaussianBlur2"/>
    </filter>
  </defs>
  <g inkscape:label="Layer 1" inkscape:groupmode="layer" id="layer1">
    <rect style="display:inline;fill:url(#radialGradient12);stroke:none;stroke-width:1.74182;stroke-opacity:1" id="rect9" width="3840" height="304.90881" x="2.4233807e-27" y="-1.4210855e-14" ry="0" inkscape:label="bg"/>
    <circle style="display:inline;fill:url(#linearGradient3)" id="path1" cx="1925.0266" cy="346.81494" r="94.766556" clip-path="url(#clipPath17)" transform="translate(0,-95.09119)" inkscape:label="sun"/>
    <g id="g14" clip-path="url(#clipPath16)" transform="translate(0,-95.09119)" inkscape:label="buildings">
      <path style="display:inline;fill:url(#linearGradient8);fill-opacity:1;stroke:none;stroke-opacity:1" d="m 0.92352114,217.44677 32.16210386,3.20009 0.175683,30.94799 38.087116,3.07054 0.35808,38.59527 72.404396,-1.60521 4.32279,-52.10368 30.94542,3.96864 v 34.78421 l 3.62933,34.19409 40.46134,-27.26754 8.39387,-23.59349 41.61461,3.97355 -0.15913,76.61531 h 65.26123 l 4.5868,-93.14141 41.04645,4.17238 v 52.17464 l 19.98941,-6.49754 11.54822,2.29871 22.1026,-37.73393 29.90004,2.73782 v 18.4948 l 20.95647,0.82577 v 53.60937 l 55.52025,0.84746 21.27254,-54.22181 40.54713,3.92245 v 68.88363 l 33.57229,-28.59951 16.69302,1.76296 49.77988,-32.50389 25.34713,3.17552 v 8.03646 l 51.44729,-0.38212 13.09444,-41.38448 25.78439,2.79911 v 50.29475 l 23.53278,-1.41402 20.96526,-38.90765 19.73329,1.9424 v 86.95584 l 53.63754,0.19583 13.88632,-85.16394 20.19501,2.01429 v 17.86705 l 1.64699,-1.43268 23.13649,2.13145 v 35.41044 l 48.28811,-2.74761 15.2793,-32.2362 23.6366,3.28672 v 78.58751 l 42.5918,-2.66507 25.7363,-74.22296 21.6392,1.80402 v 18.45833 l 45.7067,-5.29774 21.8014,-20.02651 17.7628,2.02298 v 56.38788 l 4.2446,-3.38658 17.7907,1.79467 v 22.38868 l 15.5686,-0.91166 14.1854,-38.99208 11.5755,1.47686 v 42.07426 l 26.9815,-1.32524 28.665,-63.11279 12.2571,1.56995 v 53.14125 l 22.645,-7.47102 26.6336,-54.45593 13.6103,2.62579 v 27.16927 l 12.6984,-13.46581 14.5575,2.11382 v 47.48106 l 55.8704,-14.26883 19.1853,-32.39766 8.627,1.3292 v 14.22132 l 32.5437,0.79766 2.713,-12.4752 7.8488,1.27866 v 10.91288 l 37.6855,-12.72977 8.957,1.84465 v 26.95768 l 26.0223,-2.05865 10.5217,-23.75695 6.4308,1.14247 v 11.35547 l 40.8377,-7.54703 3.1318,1.5945 v 27.81976 l 122.4766,3.33307 106.1221,1.3898 99.5305,0.11397 41.0083,-4.94796 v -9.81336 l 4.0735,-0.81069 18.2669,2.77976 v -10.11105 l 3.6263,-1.12598 18.2819,15.67862 22.7238,-2.89854 v -6.99711 l 6.4516,-1.42081 14.7232,2.7483 v -11.54904 l 7.1517,-2.08035 15.4743,2.85109 v -10.32784 l 5.7128,-2.13589 28.9674,34.0369 30.5197,3.65641 v -25.89674 l 7.7985,-3.07436 52.0854,33.15401 7.0865,-12.76645 v -31.84281 l 6.9107,-3.84994 25.8167,47.20396 8.8569,-11.17851 v -8.01331 l 12.3159,-3.27483 9.8463,1.36949 v -9.66783 l 13.603,-3.37818 10.5904,1.73113 v -6.01155 l 9.9483,-3.22612 11.6925,1.0935 -0.072,-5.15932 11.2893,-3.14392 50.0939,46.37845 2.6873,-5.97129 v -28.99133 l 15.6506,-3.28436 6.6671,1.00065 v -16.15306 l 13.2877,-3.41607 31.2745,50.42132 22.5097,-24.14906 v -8.29702 l 16.0967,-3.66637 5.8479,1.09141 v -16.96541 l 16.3294,-2.48257 5.839,1.52768 v -7.80861 l 14.4944,-3.77095 48.4824,16.44443 18.3302,-2.00198 24.6338,1.02449 v -28.17669 l 22.2727,-3.66844 67.0102,52.00938 3.6332,-1.75544 v -16.09316 l 16.5466,-4.95345 25.1153,35.24935 v -46.8716 l 21.8717,-3.02495 39.8016,43.9589 9.9403,-27.3892 18.0245,-2.04615 23.3681,21.9252 3.7692,-19.33193 14.836,-1.10692 v -15.21861 l 25.8409,-2.81426 21.1366,1.28509 v -7.82065 l 20.1153,-3.29136 28.3609,32.71275 13.8301,-2.11659 v -38.80405 l 27.3107,-1.99714 0.1368,-4.39312 26.7377,-2.7529 44.9271,46.75326 13.9305,-1.00963 0.2411,-32.90673 25.4615,-2.99334 27.1219,45.97351 31.0331,19.28634 0.5107,-5.52459 v -66.40759 l 22.6587,-2.24191 0.1498,-22.75623 33.796,-5.1943 24.1613,65.60003 30.8457,-3.65885 v -72.29464 l 33.3572,-3.48609 28.4114,11.40714 40.5727,-5.26937 27.8873,1.4168 0.1751,-6.14854 36.6756,-4.90887 21.1821,40.48265 6.1288,-38.64037 14.3513,-3.31977 32.0521,59.89345 33.1686,7.72511 8.7374,-18.46427 v -43.16918 l 43.0576,-5.15346 31.5773,27.52974 52.0717,23.35362 V 402.08576 H -17.270279 V 216.30459 Z" id="path5" inkscape:label="sides" sodipodi:nodetypes="ccccccccccccccccccccccccccccccccccccccccccccccccccccccccccccccccccccccccccccccccccccccccccccccccccccccccccccccccccccccccccccccccccccccccccccccccccccccccccccccccccccccccccccccccccccccccccccccccccccccccccccccccccccccccc"/>
      <path style="display:inline;fill:#4e348a;fill-opacity:1;stroke:none" d="m 1.6314698,251.83482 31.6550102,-0.31242 0.254733,37.85297 45.682549,-1.01569 -0.254594,-19.2876 15.915419,-0.15729 0.108094,-19.76603 27.328449,-0.19105 0.002,-9.2611 26.17823,-0.19009 v 31.57889 h 39.84252 v 18.41118 h 18.63035 v -27.95124 h 25.0255 v 77.37579 h 84.51731 v -89.90337 h 26.89551 v 44.14205 h 26.64413 v 5.4838 h 34.10277 v 10.81519 h 10.40038 v -45.96909 h 23.47713 v 20.46299 h 22.44493 v 42.45714 h 25.52282 v 9.38881 h 9.68785 v -25.11785 h 43.26565 v -24.98298 h 27.47173 v 59.65911 h 48.03395 V 329.9984 h 25.65564 v 17.4978 h 14.40712 v -43.41718 h 26.50112 v -4.95704 h 25.34392 v 20.27819 h 17.69856 v -13.0239 H 768.31 v -37.75196 h 27.98986 v 89.56478 h 20.32341 v -42.73908 h 20.24603 v -34.22818 h 29.9653 v 78.76384 h 37.91596 V 337.7018 h 23.70952 v -52.56155 h 25.45174 v 18.43863 h 21.55909 v 28.01611 h 37.76739 V 321.4783 h 26.258 v -15.28868 h 22.8433 v 68.58632 h 45.6967 V 330.6381 h 19.3721 v -19.39486 h 26.3998 v 60.65619 h 20.3502 v -48.6403 h 22.4636 v -10.33069 h 21.2945 l 1.8558,-6.92587 h 23.4194 v 55.14054 h 22.4345 v 17.03518 h 20.6262 v -32.74838 h 26.9872 v 37.00383 h 16.3739 v -46.11112 h 22.5134 v -11.87208 h 27.9928 v 46.24124 h 16.0742 V 317.2129 h 45.3939 v 16.54768 h 27.1357 v 32.42445 h 37.6668 v -7.41535 h 23.192 v -22.16684 h 28.6634 v 10.7852 h 16.2225 v -6.8406 h 27.3364 v 5.64363 h 19.175 v -6.06169 h 26.1031 v 21.8664 h 21.1523 v -19.02432 h 24.3508 v 4.98114 h 47.2642 v 16.35883 h 17.2924 v -14.71371 h 28.5282 v 3.92369 h 21.0969 v 3.86462 h 21.7065 v -2.23842 h 21.5058 v 15.18699 h 65.8795 v 2.61135 h 20.4998 v -4.35699 h 24.6765 v 4.51405 h 19.8675 v -2.54229 h 21.6409 v -8.0225 h 21.9583 v -4.09415 h 22.6262 v -4.05129 h 50.3362 v 19.60861 h 18.2749 v -7.34294 h 22.0368 v -8.60005 h 24.8617 v 9.65742 h 16.4783 6.0153 v -5.41452 h 21.4343 v -10.6085 h 21.5283 v -9.95311 h 25.4553 v 17.66102 h 24.5199 v 14.57879 h 17.2132 v -23.28057 h 27.3149 v 14.81513 h 19.2408 v 4.41169 h 19.5062 v -34.49697 h 28.8691 v 32.72312 h 18.2515 v -8.08298 h 23.7179 v -11.35544 h 20.2496 v -7.63691 h 23.1455 v -7.21315 h 23.1134 v 11.21927 h 24.5987 v 27.7102 h 20.6243 v -30.8934 h 19.8791 v -18.85584 h 26.9508 v 21.12399 h 25.5315 v 3.21577 h 17.1069 v -9.88366 h 22.323 v -18.28648 h 20.2389 V 309.1792 h 27.6292 v 6.77585 h 25.2293 v 56.09189 h 14.4108 v -48.57042 h 27.1934 v 23.9696 h 19.6839 v -54.45385 h 29.2206 v 4.75629 h 40.2224 v 43.94394 h 17.5296 v -19.72638 h 24.0911 v 30.96721 h 22.9775 v -45.33496 h 26.4352 v 15.34096 h 23.5836 v 17.92306 h 17.4768 v -18.8726 h 27.7521 v 9.98985 h 17.0176 v -10.8659 h 23.3041 v -15.72091 h 24.476 v 37.34141 h 16.8377 v -47.32109 h 28.397 v 58.67209 h 14.2269 v -29.41949 h 26.3828 v -39.3334 h 26.8858 v -7.21179 h 28.6314 v 7.85508 h 17.9654 v 58.92883 h 16.6229 v -21.36559 h 21.7776 V 288.3858 h 22.542 v 27.16138 h 29.5862 v 31.09024 h 39.6255 v -69.00019 h 23.47 v -26.6745 h 24.8035 v 37.27084 h 17.3447 v 20.81914 h 22.5069 v 35.52917 h 23.7021 V 237.39752 h 28.8231 v 106.58097 h 39.9037 V 243.454 h 28.4915 v 49.6347 h 21.8819 v 45.20044 h 14.7938 V 233.55782 h 27.5493 v 35.76149 h 13.683 V 232.5137 h 27.6279 v 47.57079 h 47.1855 v 57.44846 h 37.4843 5.1974 V 233.1319 h 23.3032 v 9.50976 h 22.5245 24.4757 l -0.4131,158.47329 -3855.6966767,0.1789 0.159806,-148.99068 z" id="path4" sodipodi:nodetypes="ccccccccccccccccccccccccccccccccccccccccccccccccccccccccccccccccccccccccccccccccccccccccccccccccccccccccccccccccccccccccccccccccccccccccccccccccccccccccccccccccccccccccccccccccccccccccccccccccccccccccccccccccccccccccccccccccccccccccccccccccccccccccccccccccccccccccccccccccccccccccccccccccccccccccccccccc" inkscape:label="front"/>
    </g>
    <rect style="fill:#4e348a;fill-opacity:1;stroke:none;stroke-width:1.05118" id="rect1" width="3840" height="105.07288" x="2.4233807e-27" y="294.92712" inkscape:label="fill below buildings"/>
    <text xml:space="preserve" id="text17" style="font-size:106.667px;letter-spacing:1.76px;white-space:pre;shape-inside:url(#rect18);display:none;opacity:0.533171;fill:#ffffff;fill-opacity:1;stroke:none;stroke-opacity:1;filter:url(#filter1)" inkscape:label="nanobyte glow" transform="translate(189.292,261.3976)">
      <tspan x="1435.4805" y="109.06017" id="tspan5">
        <tspan style="font-family:'Alien Encounters';-inkscape-font-specification:'Alien Encounters'" id="tspan4">NANOBYTE</tspan>
      </tspan>
    </text>
    <text xml:space="preserve" id="text17-9" style="font-size:106.667px;letter-spacing:1.76px;white-space:pre;shape-inside:url(#rect18-7);display:none;fill:#ffffff;fill-opacity:1;stroke:none;stroke-opacity:1" inkscape:label="nanobyte" transform="translate(189.292,261.3976)">
      <tspan x="1435.4805" y="109.06017" id="tspan7">
        <tspan style="font-family:'Alien Encounters';-inkscape-font-specification:'Alien Encounters'" id="tspan6">NANOBYTE</tspan>
      </tspan>
    </text>
    <path style="font-size:106.667px;font-family:'Alien Encounters';-inkscape-font-specification:'Alien Encounters';letter-spacing:1.76px;white-space:pre;opacity:0.533171;fill:#ffffff;filter:url(#filter2)" d="m 1502.6807,40.79329 h -16.0001 v -6.40002 h 16.0001 z m 0,8.53336 h -16.0001 v -6.40002 h 16.0001 z m 0,8.53336 h -16.0001 v -6.40002 h 16.0001 z m 0,8.53336 h -16.0001 v -6.40002 h 16.0001 z m 0,8.53336 h -16.0001 v -6.40002 h 16.0001 z m -43.4135,-34.13344 h -20.5867 v -6.40002 h 16 z m 6.08,8.53336 h -26.6667 v -6.40002 h 22.08 z m 37.3335,34.13344 h -34.2401 l -4.5867,-6.40002 h 21.3334 l 1.4933,2.13334 v -2.13334 h 16.0001 z m -31.2535,-25.60008 h -32.7467 v -6.40002 h 28.1601 z m 12.1601,17.06672 h -21.3334 l -4.48,-6.40002 h 21.3334 z m 19.0934,17.06672 h -28.1601 l -4.5867,-6.40002 h 32.7468 z m -25.1734,-25.60008 h -21.3334 l -1.4934,-2.13334 v 2.13334 h -16 v -6.40002 h 34.2401 z m 25.1734,34.13344 h -22.0801 l -4.5867,-6.40002 h 26.6668 z m 0,8.53336 h -16.0001 l -4.5867,-6.40002 h 20.5868 z m -48.0002,-34.13344 h -16 v -6.40002 h 16 z m 0,8.53336 h -16 v -6.40002 h 16 z m 0,8.53336 h -16 v -6.40002 h 16 z m 0,8.53336 h -16 v -6.40002 h 16 z m 0,8.53336 h -16 v -6.40002 h 16 z m 105.6537,-68.26688 h -25.3868 l 2.56,-6.40002 h 20.2668 z m 3.4133,8.53336 h -32.2134 l 2.56,-6.40002 h 27.0934 z m 6.8267,17.06672 h -18.1334 l -2.56,-6.40002 h 18.1334 z m -3.4133,-8.53336 h -18.1334 l -1.3867,-3.520011 -1.3867,3.520011 h -18.1334 l 2.56,-6.40002 h 33.9201 z m 6.8266,17.06672 h -18.1333 l -2.5601,-6.40002 h 18.1334 z m 10.2401,25.60008 h -18.1334 l -2.56,-6.40002 h 18.1334 z m -38.8268,-40.53346 -2.56,6.40002 h -18.1334 l 2.56,-6.40002 z m 42.2401,49.06682 h -18.1334 l -2.56,-6.40002 h 18.1334 z m -10.24,-25.60008 h -59.5202 l 2.56,-6.40002 h 54.4002 z m -35.4135,-14.93338 -2.56,6.40002 h -18.1334 l 2.5601,-6.40002 z m 38.8268,23.46674 h -66.3468 l 2.56,-6.40002 h 61.2268 z m -49.0668,2.13334 -2.56,6.40002 h -18.1334 l 2.56,-6.40002 z m -3.4133,8.53336 -2.56,6.40002 h -18.1334 l 2.56,-6.40002 z m 128.267,-61.86686 h -16 v -6.40002 h 16 z m 0,8.53336 h -16 v -6.40002 h 16 z m 0,8.53336 h -16 v -6.40002 h 16 z m 0,8.53336 h -16 v -6.40002 h 16 z m 0,8.53336 h -16 v -6.40002 h 16 z m -43.4134,-34.13344 h -20.5868 v -6.40002 h 16.0001 z m 6.08,8.53336 h -26.6668 v -6.40002 h 22.0801 z m 37.3334,34.13344 h -34.2401 l -4.5867,-6.40002 h 21.3334 l 1.4934,2.13334 v -2.13334 h 16 z m -31.2534,-25.60008 h -32.7468 v -6.40002 h 28.1601 z m 12.16,17.06672 h -21.3334 l -4.48,-6.40002 h 21.3334 z m 19.0934,17.06672 h -28.1601 l -4.5866,-6.40002 h 32.7467 z m -25.1734,-25.60008 h -21.3334 l -1.4933,-2.13334 v 2.13334 h -16.0001 v -6.40002 h 34.2401 z m 25.1734,34.13344 h -22.08 l -4.5867,-6.40002 h 26.6667 z m 0,8.53336 h -16 l -4.5867,-6.40002 h 20.5867 z M 1608.601,74.92673 h -16.0001 v -6.40002 h 16.0001 z m 0,8.53336 h -16.0001 v -6.40002 h 16.0001 z m 0,8.53336 h -16.0001 v -6.40002 h 16.0001 z m 0,8.53336 h -16.0001 v -6.40002 h 16.0001 z m 0,8.53336 h -16.0001 v -6.40002 h 16.0001 z m 120.1603,-51.20016 h -16 v -6.40002 h 16 z m -0.8533,-17.06672 h -62.2935 q 2.7733,-6.40002 9.8133,-6.40002 h 42.6668 q 7.0401,0 9.8134,6.40002 z m 0.8533,25.60008 h -16 v -6.40002 h 16 z m 0,-17.06672 h -64.0002 v -4.26668 q 0,-1.06667 0.2134,-2.13334 h 63.5735 q 0.2133,1.06667 0.2133,2.13334 z m 0,25.60008 h -16 v -6.40002 h 16 z m 0,8.53336 h -16 v -6.40002 h 16 z m 0,8.53336 h -16 v -6.40002 h 16 z m -48.0001,-34.13344 h -16.0001 v -6.40002 h 16.0001 z m 0,8.53336 h -16.0001 v -6.40002 h 16.0001 z m 0,8.53336 h -16.0001 v -6.40002 h 16.0001 z m 48.0001,23.46674 q 0,1.06667 -0.2133,2.13334 h -63.5735 q -0.2134,-1.06667 -0.2134,-2.13334 v -4.26668 h 64.0002 z m -48.0001,-14.93338 h -16.0001 v -6.40002 h 16.0001 z m 47.1468,19.20006 q -2.7733,6.40002 -9.8134,6.40002 h -42.6668 q -7.04,0 -9.8133,-6.40002 z m -47.1468,-10.6667 h -16.0001 v -6.40002 h 16.0001 z m 120.1603,-36.26678 q 0,1.06667 -0.2133,2.13334 h -15.7867 v -6.40002 h 16 z m -0.8533,-14.93338 h -63.1469 v -6.40002 h 53.3335 q 7.04,0 9.8134,6.40002 z m 0.8533,8.53336 h -64.0002 v -6.40002 h 63.7869 q 0.2133,1.06667 0.2133,2.13334 z m 0,34.13344 h -16 v -6.40002 h 15.7867 q 0.2133,1.06667 0.2133,2.13334 z m -0.8533,-23.46674 q -2.7734,6.40002 -9.8134,6.40002 h -53.3335 v -6.40002 z m 0.8533,32.0001 h -16 v -6.40002 h 16 z m -0.8533,-17.06672 h -63.1469 v -6.40002 h 53.3335 q 7.04,0 9.8134,6.40002 z m -47.1468,-17.06672 h -16.0001 v -6.40002 h 16.0001 z m 48.0001,40.53346 q 0,1.06667 -0.2133,2.13334 h -63.7869 v -6.40002 h 64.0002 z m -48.0001,-14.93338 h -16.0001 v -6.40002 h 16.0001 z m 47.1468,19.20006 q -2.7734,6.40002 -9.8134,6.40002 h -53.3335 v -6.40002 z m -47.1468,-10.6667 h -16.0001 v -6.40002 h 16.0001 z m 130.827,-57.60018 -4.6933,6.40002 h -20.2667 l 4.6933,-6.40002 z m -6.1866,8.53336 -4.6934,6.40002 h -20.2667 l 4.6933,-6.40002 z m -6.2934,8.53336 -4.5867,6.40002 h -40.5334 l -4.5867,-6.40002 h 20.2667 l 4.5867,6.40002 4.5867,-6.40002 z m -37.2268,-10.6667 h -20.2667 l -4.6934,-6.40002 h 20.2668 z m 31.0401,19.20006 -4.6933,6.40002 h -27.9468 l -4.6933,-6.40002 z m -24.8534,-10.6667 h -20.2667 l -4.6934,-6.40002 h 20.2668 z m 18.6667,19.20006 -4.48,6.40002 h -16 l -4.48,-6.40002 z m -4.48,14.93338 h -16 v -6.40002 h 16 z m 0,8.53336 h -16 v -6.40002 h 16 z m 0,8.53336 h -16 v -6.40002 h 16 z m 0,8.53336 h -16 v -6.40002 h 16 z m 101.4937,-68.26688 h -64.0002 v -6.40002 h 64.0002 z m 0,8.53336 h -64.0002 v -6.40002 h 64.0002 z m -22.9334,8.53336 h -16.0001 v -6.40002 h 16.0001 z m 0,8.53336 h -16.0001 v -6.40002 h 16.0001 z m 0,8.53336 h -16.0001 v -6.40002 h 16.0001 z m 0,8.53336 h -16.0001 v -6.40002 h 16.0001 z m 0,8.53336 h -16.0001 v -6.40002 h 16.0001 z m 0,8.53336 h -16.0001 v -6.40002 h 16.0001 z m 0,8.53336 h -16.0001 v -6.40002 h 16.0001 z m 89.7602,-68.26688 h -57.8135 q 2.7733,-6.40002 9.8134,-6.40002 h 48.0001 z m 0,8.53336 h -58.6668 v -4.26668 q 0,-1.06667 0.2133,-2.13334 h 58.4535 z m 0,17.06672 h -58.6668 v -6.40002 h 58.6668 z m 0,8.53336 h -58.6668 v -6.40002 h 58.6668 z m -42.6668,-17.06672 h -16 v -6.40002 h 16 z m 42.6668,42.6668 h -58.4535 q -0.2133,-1.06667 -0.2133,-2.13334 v -4.26668 h 58.6668 z m -42.6668,-17.06672 h -16 v -6.40002 h 16 z m 42.6668,25.60008 h -48.0001 q -7.0401,0 -9.8134,-6.40002 h 57.8135 z m -42.6668,-17.06672 h -16 v -6.40002 h 16 z" id="text17-1" inkscape:label="nanobyte glow" transform="translate(189.292,261.3976)" aria-label="NANOBYTE"/>
    <path style="font-size:106.667px;font-family:'Alien Encounters';-inkscape-font-specification:'Alien Encounters';letter-spacing:1.76px;white-space:pre;fill:#ffffff" d="m 1502.6807,40.79329 h -16.0001 v -6.40002 h 16.0001 z m 0,8.53336 h -16.0001 v -6.40002 h 16.0001 z m 0,8.53336 h -16.0001 v -6.40002 h 16.0001 z m 0,8.53336 h -16.0001 v -6.40002 h 16.0001 z m 0,8.53336 h -16.0001 v -6.40002 h 16.0001 z m -43.4135,-34.13344 h -20.5867 v -6.40002 h 16 z m 6.08,8.53336 h -26.6667 v -6.40002 h 22.08 z m 37.3335,34.13344 h -34.2401 l -4.5867,-6.40002 h 21.3334 l 1.4933,2.13334 v -2.13334 h 16.0001 z m -31.2535,-25.60008 h -32.7467 v -6.40002 h 28.1601 z m 12.1601,17.06672 h -21.3334 l -4.48,-6.40002 h 21.3334 z m 19.0934,17.06672 h -28.1601 l -4.5867,-6.40002 h 32.7468 z m -25.1734,-25.60008 h -21.3334 l -1.4934,-2.13334 v 2.13334 h -16 v -6.40002 h 34.2401 z m 25.1734,34.13344 h -22.0801 l -4.5867,-6.40002 h 26.6668 z m 0,8.53336 h -16.0001 l -4.5867,-6.40002 h 20.5868 z m -48.0002,-34.13344 h -16 v -6.40002 h 16 z m 0,8.53336 h -16 v -6.40002 h 16 z m 0,8.53336 h -16 v -6.40002 h 16 z m 0,8.53336 h -16 v -6.40002 h 16 z m 0,8.53336 h -16 v -6.40002 h 16 z m 105.6537,-68.26688 h -25.3868 l 2.56,-6.40002 h 20.2668 z m 3.4133,8.53336 h -32.2134 l 2.56,-6.40002 h 27.0934 z m 6.8267,17.06672 h -18.1334 l -2.56,-6.40002 h 18.1334 z m -3.4133,-8.53336 h -18.1334 l -1.3867,-3.520011 -1.3867,3.520011 h -18.1334 l 2.56,-6.40002 h 33.9201 z m 6.8266,17.06672 h -18.1333 l -2.5601,-6.40002 h 18.1334 z m 10.2401,25.60008 h -18.1334 l -2.56,-6.40002 h 18.1334 z m -38.8268,-40.53346 -2.56,6.40002 h -18.1334 l 2.56,-6.40002 z m 42.2401,49.06682 h -18.1334 l -2.56,-6.40002 h 18.1334 z m -10.24,-25.60008 h -59.5202 l 2.56,-6.40002 h 54.4002 z m -35.4135,-14.93338 -2.56,6.40002 h -18.1334 l 2.5601,-6.40002 z m 38.8268,23.46674 h -66.3468 l 2.56,-6.40002 h 61.2268 z m -49.0668,2.13334 -2.56,6.40002 h -18.1334 l 2.56,-6.40002 z m -3.4133,8.53336 -2.56,6.40002 h -18.1334 l 2.56,-6.40002 z m 128.267,-61.86686 h -16 v -6.40002 h 16 z m 0,8.53336 h -16 v -6.40002 h 16 z m 0,8.53336 h -16 v -6.40002 h 16 z m 0,8.53336 h -16 v -6.40002 h 16 z m 0,8.53336 h -16 v -6.40002 h 16 z m -43.4134,-34.13344 h -20.5868 v -6.40002 h 16.0001 z m 6.08,8.53336 h -26.6668 v -6.40002 h 22.0801 z m 37.3334,34.13344 h -34.2401 l -4.5867,-6.40002 h 21.3334 l 1.4934,2.13334 v -2.13334 h 16 z m -31.2534,-25.60008 h -32.7468 v -6.40002 h 28.1601 z m 12.16,17.06672 h -21.3334 l -4.48,-6.40002 h 21.3334 z m 19.0934,17.06672 h -28.1601 l -4.5866,-6.40002 h 32.7467 z m -25.1734,-25.60008 h -21.3334 l -1.4933,-2.13334 v 2.13334 h -16.0001 v -6.40002 h 34.2401 z m 25.1734,34.13344 h -22.08 l -4.5867,-6.40002 h 26.6667 z m 0,8.53336 h -16 l -4.5867,-6.40002 h 20.5867 z M 1608.601,74.92673 h -16.0001 v -6.40002 h 16.0001 z m 0,8.53336 h -16.0001 v -6.40002 h 16.0001 z m 0,8.53336 h -16.0001 v -6.40002 h 16.0001 z m 0,8.53336 h -16.0001 v -6.40002 h 16.0001 z m 0,8.53336 h -16.0001 v -6.40002 h 16.0001 z m 120.1603,-51.20016 h -16 v -6.40002 h 16 z m -0.8533,-17.06672 h -62.2935 q 2.7733,-6.40002 9.8133,-6.40002 h 42.6668 q 7.0401,0 9.8134,6.40002 z m 0.8533,25.60008 h -16 v -6.40002 h 16 z m 0,-17.06672 h -64.0002 v -4.26668 q 0,-1.06667 0.2134,-2.13334 h 63.5735 q 0.2133,1.06667 0.2133,2.13334 z m 0,25.60008 h -16 v -6.40002 h 16 z m 0,8.53336 h -16 v -6.40002 h 16 z m 0,8.53336 h -16 v -6.40002 h 16 z m -48.0001,-34.13344 h -16.0001 v -6.40002 h 16.0001 z m 0,8.53336 h -16.0001 v -6.40002 h 16.0001 z m 0,8.53336 h -16.0001 v -6.40002 h 16.0001 z m 48.0001,23.46674 q 0,1.06667 -0.2133,2.13334 h -63.5735 q -0.2134,-1.06667 -0.2134,-2.13334 v -4.26668 h 64.0002 z m -48.0001,-14.93338 h -16.0001 v -6.40002 h 16.0001 z m 47.1468,19.20006 q -2.7733,6.40002 -9.8134,6.40002 h -42.6668 q -7.04,0 -9.8133,-6.40002 z m -47.1468,-10.6667 h -16.0001 v -6.40002 h 16.0001 z m 120.1603,-36.26678 q 0,1.06667 -0.2133,2.13334 h -15.7867 v -6.40002 h 16 z m -0.8533,-14.93338 h -63.1469 v -6.40002 h 53.3335 q 7.04,0 9.8134,6.40002 z m 0.8533,8.53336 h -64.0002 v -6.40002 h 63.7869 q 0.2133,1.06667 0.2133,2.13334 z m 0,34.13344 h -16 v -6.40002 h 15.7867 q 0.2133,1.06667 0.2133,2.13334 z m -0.8533,-23.46674 q -2.7734,6.40002 -9.8134,6.40002 h -53.3335 v -6.40002 z m 0.8533,32.0001 h -16 v -6.40002 h 16 z m -0.8533,-17.06672 h -63.1469 v -6.40002 h 53.3335 q 7.04,0 9.8134,6.40002 z m -47.1468,-17.06672 h -16.0001 v -6.40002 h 16.0001 z m 48.0001,40.53346 q 0,1.06667 -0.2133,2.13334 h -63.7869 v -6.40002 h 64.0002 z m -48.0001,-14.93338 h -16.0001 v -6.40002 h 16.0001 z m 47.1468,19.20006 q -2.7734,6.40002 -9.8134,6.40002 h -53.3335 v -6.40002 z m -47.1468,-10.6667 h -16.0001 v -6.40002 h 16.0001 z m 130.827,-57.60018 -4.6933,6.40002 h -20.2667 l 4.6933,-6.40002 z m -6.1866,8.53336 -4.6934,6.40002 h -20.2667 l 4.6933,-6.40002 z m -6.2934,8.53336 -4.5867,6.40002 h -40.5334 l -4.5867,-6.40002 h 20.2667 l 4.5867,6.40002 4.5867,-6.40002 z m -37.2268,-10.6667 h -20.2667 l -4.6934,-6.40002 h 20.2668 z m 31.0401,19.20006 -4.6933,6.40002 h -27.9468 l -4.6933,-6.40002 z m -24.8534,-10.6667 h -20.2667 l -4.6934,-6.40002 h 20.2668 z m 18.6667,19.20006 -4.48,6.40002 h -16 l -4.48,-6.40002 z m -4.48,14.93338 h -16 v -6.40002 h 16 z m 0,8.53336 h -16 v -6.40002 h 16 z m 0,8.53336 h -16 v -6.40002 h 16 z m 0,8.53336 h -16 v -6.40002 h 16 z m 101.4937,-68.26688 h -64.0002 v -6.40002 h 64.0002 z m 0,8.53336 h -64.0002 v -6.40002 h 64.0002 z m -22.9334,8.53336 h -16.0001 v -6.40002 h 16.0001 z m 0,8.53336 h -16.0001 v -6.40002 h 16.0001 z m 0,8.53336 h -16.0001 v -6.40002 h 16.0001 z m 0,8.53336 h -16.0001 v -6.40002 h 16.0001 z m 0,8.53336 h -16.0001 v -6.40002 h 16.0001 z m 0,8.53336 h -16.0001 v -6.40002 h 16.0001 z m 0,8.53336 h -16.0001 v -6.40002 h 16.0001 z m 89.7602,-68.26688 h -57.8135 q 2.7733,-6.40002 9.8134,-6.40002 h 48.0001 z m 0,8.53336 h -58.6668 v -4.26668 q 0,-1.06667 0.2133,-2.13334 h 58.4535 z m 0,17.06672 h -58.6668 v -6.40002 h 58.6668 z m 0,8.53336 h -58.6668 v -6.40002 h 58.6668 z m -42.6668,-17.06672 h -16 v -6.40002 h 16 z m 42.6668,42.6668 h -58.4535 q -0.2133,-1.06667 -0.2133,-2.13334 v -4.26668 h 58.6668 z m -42.6668,-17.06672 h -16 v -6.40002 h 16 z m 42.6668,25.60008 h -48.0001 q -7.0401,0 -9.8134,-6.40002 h 57.8135 z m -42.6668,-17.06672 h -16 v -6.40002 h 16 z" id="text17-9-9" inkscape:label="nanobyte" transform="translate(189.292,261.3976)" aria-label="NANOBYTE"/>
  </g>
</svg>